<svg data-v-fde0c5aa="" xmlns="http://www.w3.org/2000/svg" viewBox="0 0 300 300" class="icon"><!----><defs data-v-fde0c5aa=""><!----></defs><rect data-v-fde0c5aa="" fill="transparent" x="0" y="0" width="300px" height="300px" class="logo-background-square"></rect><!----><defs data-v-fde0c5aa=""><!----></defs><g data-v-fde0c5aa="" id="e56a382d-6d49-4347-b42a-d338f5e36a0f" fill="#4E1A70" stroke="none" transform="matrix(2.62534986194895,0,0,2.62534986194895,26.22538083534951,18.73204872019402)"><path d="M40.153 72.033c0-.958-3.113-.479-7.902-3.113-4.788-2.634-9.099-8.381-10.056-16.522-.958-8.141 2.634-14.846 2.634-14.846s-4.31-1.915-7.662-10.296c-3.352-8.381 4.07-15.803 4.07-15.803s1.916 5.268 4.071 8.62c2.155 3.352 8.141 4.789 11.733 6.226 3.592 1.437 18.198.479 21.075.239 2.877-.239 4.306-2.873 8.377-6.943 4.071-4.071 1.676-11.494 1.676-11.494s5.986 3.832 9.099 11.733c3.113 7.902-4.789 16.521-4.789 16.521s2.873 10.057 2.634 19.874c-.239 9.817-9.578 14.846-11.055 15.325-1.477.479-5.706 1.197-5.228 2.634.479 1.437 6.944 14.845 4.789 16.761-2.155 1.916-23.68.635-25.381-1.197-3.114-3.353 1.915-16.762 1.915-17.719zm-5.508-20.477c5.747 4.549 9.338-2.874 9.338-2.874l-14.127-6.704c0 .001-.957 5.029 4.789 9.578zm31.607-4.05c2.873-3.812 0-7.682 0-7.682l-12.451 7.682c6.465 4.808 9.578 3.811 12.451 0z"></path></g><!----></svg>